<svg width="22" height="22" viewBox="0 0 22 22" fill="none" xmlns="http://www.w3.org/2000/svg">
<path d="M7.26221 0.961914C7.81486 0.732035 8.19042 0.723643 8.43018 0.771484C8.66952 0.819353 8.81736 0.932118 8.8999 1.01758L8.90674 1.02344C8.99147 1.10819 9.0993 1.25508 9.14404 1.48438C9.18857 1.7128 9.17911 2.06933 8.95166 2.58984V2.59082C8.46419 3.71412 8.21977 4.91267 8.22998 6.1416V6.14258C8.25133 10.8454 12.1476 14.8168 16.897 15.0088V15.0098C17.5876 15.0416 18.265 14.9878 18.9175 14.8721H18.9194C19.5024 14.7661 19.8652 14.8388 20.0845 14.9355C20.3033 15.0321 20.4222 15.171 20.4849 15.2725C20.5496 15.3773 20.6228 15.5481 20.6138 15.7881C20.6046 16.0282 20.5104 16.3861 20.1577 16.8623L20.1567 16.8652C18.1323 19.6345 14.9124 21.25 11.4595 21.25C11.2872 21.25 11.1318 21.2502 10.979 21.2412L10.9722 21.2402C5.78766 21.0087 1.43096 16.9519 0.825684 11.9336L0.778809 11.4443C0.454463 6.94166 3.05813 2.73034 7.26221 0.961914ZM8.17041 1.25C8.0007 1.25 7.77408 1.28889 7.46631 1.41895C3.46112 3.10092 0.976233 7.11882 1.271 11.4043V11.4053C1.62944 16.4235 5.89886 20.5163 10.9858 20.7383V20.7393C14.4436 20.9074 17.7235 19.3306 19.7427 16.5752L19.7437 16.5762L19.7466 16.5703C19.9189 16.3291 20.0111 16.141 20.0581 16.0156L20.2837 15.4141L19.645 15.3428C19.546 15.3318 19.4017 15.3233 19.2056 15.3457L19.0024 15.3779C18.309 15.5014 17.5846 15.5491 16.8696 15.5205C11.8532 15.3209 7.75025 11.107 7.72021 6.16016C7.72021 4.84876 7.97627 3.58966 8.49561 2.40723C8.62403 2.1247 8.65303 1.92021 8.6665 1.8125L8.73682 1.25H8.17041Z" stroke="#090D1F"/>
</svg>
